<?xml version="1.0" standalone="no"?>
<!DOCTYPE svg PUBLIC "-//W3C//DTD SVG 20010904//EN"
 "http://www.w3.org/TR/2001/REC-SVG-20010904/DTD/svg10.dtd">
<svg version="1.0" xmlns="http://www.w3.org/2000/svg"
 width="728.000000pt" height="709.000000pt" viewBox="0 0 728.000000 709.000000"
 preserveAspectRatio="xMidYMid meet">

<g transform="translate(0.000000,709.000000) scale(0.100000,-0.100000)"
fill="#000000" stroke="none">
<path d="M0 3545 l0 -3545 3640 0 3640 0 0 3545 0 3545 -3640 0 -3640 0 0
-3545z m511 3273 c79 -27 203 -138 306 -276 30 -41 96 -117 146 -170 51 -54
128 -145 171 -202 44 -58 123 -157 176 -220 109 -130 264 -349 322 -455 31
-59 39 -86 44 -148 l7 -77 41 6 c49 8 64 18 68 46 5 35 28 34 28 -2 l0 -31 48
40 c26 21 76 64 112 95 280 240 531 380 957 532 176 63 326 109 398 124 33 6
74 16 90 21 17 5 104 26 195 46 l165 37 240 0 c197 -1 263 -5 369 -23 71 -12
134 -25 140 -30 6 -5 22 -12 36 -16 40 -11 382 -150 410 -166 8 -5 37 -20 64
-35 27 -14 54 -30 60 -35 60 -49 75 -59 84 -59 11 0 129 -96 208 -170 28 -26
56 -50 63 -54 20 -13 77 32 131 105 163 220 551 587 820 777 41 30 129 96 195
147 188 147 279 206 324 212 53 7 71 -8 71 -61 0 -48 20 -179 56 -363 34 -177
31 -292 -14 -455 -40 -145 -58 -267 -72 -472 -6 -87 -12 -162 -14 -165 -2 -3
-9 -49 -15 -101 -26 -226 -85 -449 -165 -630 -63 -140 -84 -195 -106 -270 -11
-41 -27 -91 -35 -111 -8 -20 -25 -80 -40 -134 -27 -103 -49 -155 -66 -155 -6
0 -7 19 -3 50 7 56 0 62 -38 27 -43 -40 -78 -236 -78 -439 0 -60 -11 -162 -29
-270 -16 -95 -32 -220 -36 -278 -6 -97 -20 -193 -60 -405 -8 -44 -21 -123 -30
-175 -22 -138 -75 -370 -102 -450 -67 -199 -178 -422 -280 -563 -77 -105 -381
-342 -568 -442 -38 -20 -74 -41 -80 -45 -5 -4 -72 -40 -148 -79 -76 -39 -164
-89 -195 -111 -32 -21 -108 -64 -170 -95 -62 -30 -140 -76 -175 -101 -93 -68
-208 -119 -312 -139 -120 -23 -831 -34 -1011 -16 -312 32 -451 92 -672 292
-85 77 -110 107 -163 196 -103 174 -187 268 -311 347 -63 40 -84 45 -73 19 31
-74 6 -84 -30 -13 -20 40 -30 50 -50 50 -14 0 -25 5 -25 10 0 6 9 10 20 10 20
0 20 1 5 31 -9 16 -55 67 -102 112 -47 45 -97 100 -113 122 -46 69 -128 236
-174 358 -27 71 -62 141 -111 217 -16 25 -89 164 -162 310 -73 146 -143 280
-154 298 -12 18 -61 118 -109 222 -84 181 -151 288 -225 361 -30 30 -40 68
-80 309 -30 180 -49 240 -180 565 -132 325 -149 375 -201 560 -74 265 -94 384
-135 780 -6 55 -11 309 -12 565 -2 390 1 485 15 588 9 67 20 127 24 134 9 14
266 3 315 -14z"/>
<path d="M220 6718 c-17 -126 -25 -823 -11 -1058 20 -357 57 -590 141 -890 48
-168 210 -610 280 -765 38 -82 73 -207 95 -337 14 -84 25 -156 25 -160 0 -4
18 -8 40 -8 22 0 40 -4 40 -10 0 -5 -11 -10 -25 -10 -22 0 -25 -4 -25 -33 0
-43 44 -129 113 -220 35 -47 86 -139 143 -261 49 -104 99 -206 113 -225 13
-20 81 -151 150 -291 70 -140 142 -280 162 -310 50 -79 76 -128 105 -206 50
-134 131 -297 180 -364 18 -25 68 -79 112 -122 45 -42 88 -94 98 -116 11 -26
26 -43 41 -47 36 -9 131 -72 194 -129 74 -67 121 -128 203 -262 53 -87 85
-127 149 -186 221 -202 351 -261 652 -294 114 -13 212 -15 530 -11 533 8 579
19 804 178 24 17 92 55 150 84 139 69 150 75 192 107 19 15 89 55 155 89 104
54 206 110 254 140 8 5 25 13 38 19 32 14 173 112 254 177 37 29 71 53 76 53
15 0 216 213 232 245 8 17 23 43 34 59 24 36 97 185 143 291 49 113 92 256
113 375 5 25 16 77 25 115 9 39 23 113 30 165 8 52 21 133 30 180 31 161 35
196 50 355 8 88 24 208 35 265 13 65 24 180 30 302 15 316 54 438 141 438 25
0 29 5 39 43 22 86 102 333 120 375 11 23 20 47 20 52 0 6 13 38 29 72 51 112
101 251 116 328 8 41 19 93 25 115 16 67 58 393 65 510 10 150 35 303 79 470
42 159 43 216 6 409 -33 178 -40 219 -46 309 l-7 87 -31 0 c-35 0 -111 -50
-305 -200 -68 -52 -158 -120 -200 -150 -42 -30 -110 -82 -151 -115 -41 -33
-95 -75 -120 -94 -95 -72 -456 -447 -540 -561 -30 -40 -70 -83 -88 -95 l-33
-23 35 -27 c35 -26 48 -55 25 -55 -18 0 -101 60 -159 115 -130 123 -317 259
-441 321 -62 32 -282 121 -415 169 -141 51 -292 68 -570 63 -207 -4 -240 -7
-339 -31 -60 -15 -150 -36 -200 -48 -148 -33 -175 -41 -280 -75 -508 -165
-873 -349 -1094 -550 -31 -27 -84 -71 -118 -97 -68 -52 -183 -163 -183 -178 0
-5 -4 -9 -10 -9 -15 0 -12 26 6 40 8 8 20 22 25 32 10 19 8 19 -44 13 -49 -6
-56 -5 -66 13 -6 12 -11 49 -11 84 0 75 -23 125 -138 293 -103 150 -113 164
-222 295 -53 63 -132 162 -175 220 -44 57 -122 149 -174 205 -52 55 -114 127
-138 160 -72 99 -209 232 -269 260 -47 22 -65 25 -177 25 l-124 0 -13 -92z
m6365 -742 c49 -49 59 -117 59 -386 0 -212 -3 -258 -22 -340 -49 -222 -72
-311 -105 -405 -19 -55 -47 -134 -61 -175 -44 -125 -66 -161 -163 -258 -81
-83 -110 -103 -116 -80 -1 4 34 44 78 90 46 48 91 106 107 138 42 86 136 365
163 481 9 41 25 108 36 151 11 42 26 152 34 245 13 144 13 188 1 309 -15 162
-34 217 -77 222 -21 2 -47 -16 -135 -96 -60 -55 -149 -143 -198 -196 -110
-119 -433 -406 -458 -406 -22 0 3 25 120 120 70 58 217 195 327 305 244 244
272 269 310 289 42 22 72 20 100 -8z m-5787 -118 c26 -24 75 -63 107 -88 116
-89 221 -188 288 -271 38 -46 92 -113 120 -148 29 -36 80 -97 115 -137 51 -60
62 -80 62 -109 0 -19 -4 -35 -10 -35 -5 0 -10 15 -10 34 0 19 -7 39 -17 47 -9
8 -44 48 -77 90 -258 321 -304 371 -481 509 -32 25 -79 64 -107 88 -53 46 -68
50 -92 26 -13 -12 -16 -40 -16 -137 0 -167 15 -244 89 -442 16 -44 36 -99 45
-121 18 -50 50 -109 123 -227 61 -100 134 -264 156 -353 18 -70 27 -353 12
-355 -17 -1 -33 91 -34 191 -1 53 -8 121 -16 152 -25 98 -94 248 -176 383 -78
129 -88 149 -155 335 -72 196 -99 333 -92 469 5 112 21 141 78 141 32 0 48 -8
88 -42z m1874 -1709 c24 -12 50 -28 59 -35 8 -8 67 -27 131 -42 195 -49 335
-146 373 -261 21 -65 17 -214 -9 -273 -31 -72 -219 -244 -325 -298 -69 -34
-95 -40 -196 -42 -108 -2 -181 20 -233 71 -90 88 -126 189 -126 356 0 172 28
217 237 379 54 42 104 76 112 76 39 0 18 24 -49 56 -42 20 -73 40 -71 45 6 9
33 0 97 -32z m1876 -139 c32 -6 119 -12 193 -14 136 -4 216 -15 279 -37 84
-30 199 -127 234 -197 28 -54 40 -187 28 -301 -18 -174 -63 -239 -212 -310
-85 -40 -104 -45 -180 -49 -77 -4 -95 -1 -185 31 -121 42 -212 86 -259 127
-40 36 -111 174 -127 250 -14 64 -6 140 21 213 24 63 150 195 218 228 24 12
41 23 39 25 -2 2 -30 9 -63 15 -64 12 -94 24 -94 39 0 6 9 6 24 0 13 -5 51
-14 84 -20z m-473 -957 c3 -21 13 -66 22 -101 20 -82 13 -135 -30 -224 -37
-78 -178 -245 -218 -260 -13 -5 -68 -9 -124 -10 -119 -1 -136 6 -295 119 -88
63 -112 87 -151 147 -94 143 -151 276 -119 276 6 0 10 -9 10 -20 0 -17 7 -20
52 -20 32 0 75 10 114 25 34 14 111 37 171 51 100 24 119 26 258 20 133 -5
156 -4 205 14 84 30 98 27 105 -17z m1105 -232 c0 -13 -41 -25 -245 -71 -312
-70 -564 -148 -661 -205 -16 -9 -20 -13 -9 -9 135 47 307 61 739 63 214 1 400
4 414 8 18 4 23 2 20 -8 -4 -12 -81 -15 -444 -20 -241 -3 -452 -9 -469 -12
-16 -3 -61 -11 -100 -17 -62 -10 -199 -47 -262 -71 -20 -7 -21 -12 -12 -32 8
-19 17 -23 37 -19 25 4 26 3 11 -13 -23 -23 -54 -12 -69 25 -16 38 -8 48 75
94 145 79 400 165 655 220 41 9 91 21 110 26 19 5 69 17 110 28 90 23 100 25
100 13z m-2740 -115 c0 -26 69 -75 137 -96 43 -13 119 -25 203 -30 297 -21
553 -75 731 -154 31 -13 73 -28 93 -31 35 -7 54 -21 42 -32 -6 -6 -118 31
-214 72 -56 23 -64 24 -78 10 -10 -10 -35 -15 -72 -16 -48 -1 -52 -2 -27 -9
61 -17 243 -50 273 -50 18 0 32 -4 32 -10 0 -16 -68 -12 -166 10 -130 29 -323
36 -459 16 -122 -17 -351 -60 -404 -76 -36 -10 -51 -6 -35 9 10 11 262 65 399
86 86 14 73 14 -254 12 -282 -2 -345 0 -349 12 -3 9 1 11 14 7 35 -11 1009 10
1030 22 10 6 16 12 12 12 -3 0 -57 11 -120 24 -147 32 -301 54 -464 65 -163
12 -262 42 -311 96 -32 34 -43 65 -23 65 6 0 10 -6 10 -14z m1307 -296 c2 -14
26 -72 54 -130 28 -58 56 -116 62 -129 18 -36 82 -78 138 -90 80 -17 271 -13
404 9 66 11 160 20 209 20 48 0 115 7 148 16 53 13 81 13 67 -1 -15 -15 -136
-35 -209 -35 -47 0 -139 -9 -205 -19 -254 -42 -446 -32 -529 26 -33 23 -53 53
-103 152 -35 68 -63 116 -63 107 0 -10 -14 -51 -31 -91 -34 -83 -83 -136 -164
-175 -45 -23 -65 -25 -203 -28 -133 -3 -151 -6 -135 -18 17 -13 17 -13 -4 -14
-22 0 -23 -3 -23 -93 0 -240 104 -429 337 -614 15 -12 61 -49 101 -83 41 -33
86 -63 100 -66 15 -4 33 -12 40 -17 24 -19 183 -21 243 -4 59 18 207 103 252
145 15 14 42 56 59 92 31 62 32 71 32 185 0 66 -4 198 -9 293 -5 113 -5 172 2
172 11 0 27 -270 27 -465 0 -126 -1 -132 -32 -195 -41 -82 -66 -108 -168 -170
-120 -74 -173 -90 -294 -90 -125 0 -197 26 -287 103 -33 28 -86 70 -117 92
-54 38 -124 111 -193 200 -90 117 -138 263 -136 419 0 85 3 102 19 114 17 13
-4 14 -171 8 -104 -3 -224 -13 -265 -21 -86 -17 -110 -19 -110 -7 0 5 24 14
53 20 101 23 244 32 506 32 322 0 347 5 431 90 68 67 100 142 100 232 l0 59
32 -3 c24 -2 32 -8 35 -28z m575 -4 c161 -71 349 -100 602 -93 100 3 193 9
209 12 17 5 27 3 27 -3 0 -21 -76 -27 -320 -26 -231 0 -251 2 -350 27 -113 29
-274 90 -263 101 12 11 40 6 95 -18z"/>
<path d="M2800 4056 c0 -2 25 -41 55 -86 60 -92 81 -161 72 -245 -5 -50 -47
-156 -72 -185 -7 -8 -33 -53 -58 -100 -25 -47 -61 -114 -81 -148 -20 -35 -36
-66 -36 -68 0 -2 25 -4 55 -4 71 0 147 27 221 78 88 59 230 201 250 247 21 51
30 187 15 242 -21 78 -116 172 -221 219 -58 27 -200 62 -200 50z"/>
<path d="M2582 3961 c-177 -145 -197 -184 -190 -368 6 -132 20 -181 73 -258
40 -58 88 -93 137 -101 l34 -6 -8 69 c-4 37 -10 147 -14 243 -6 167 -5 180 19
276 15 56 37 126 50 157 41 90 22 88 -101 -12z"/>
<path d="M2742 4016 c-10 -22 -8 -25 11 -28 20 -4 20 -5 -10 -24 -37 -22 -44
-37 -73 -151 -29 -116 -33 -205 -18 -388 15 -180 6 -176 78 -35 18 36 53 97
76 136 69 113 86 167 82 249 -2 48 -10 84 -27 115 -32 63 -90 150 -100 150 -4
0 -13 -11 -19 -24z"/>
<path d="M4610 3944 c-81 -38 -210 -172 -233 -243 -38 -118 -13 -250 72 -380
30 -45 49 -62 111 -94 70 -37 225 -97 249 -97 6 0 11 7 11 16 0 8 17 36 39 62
71 86 71 85 71 340 0 239 -5 272 -45 327 -12 17 -30 45 -39 63 -17 33 -40 42
-50 20 -5 -10 -7 -10 -12 0 -10 22 -113 15 -174 -14z m234 -32 c2 -4 -2 -34
-10 -67 -21 -89 -41 -551 -25 -577 17 -28 6 -34 -25 -13 l-27 17 7 227 c7 224
17 325 37 389 10 30 31 42 43 24z"/>
<path d="M4880 3951 c0 -5 11 -22 24 -38 63 -76 77 -144 76 -357 -3 -249 -8
-267 -118 -405 l-27 -34 71 6 c95 8 222 68 280 133 59 65 75 129 75 291 -1
173 -14 215 -93 289 -58 54 -113 89 -171 108 -52 18 -117 21 -117 7z"/>
<path d="M3956 3044 c-25 -14 -52 -16 -180 -10 -121 6 -165 4 -221 -9 -121
-27 -245 -68 -245 -80 0 -8 -19 -10 -60 -7 -34 3 -60 0 -60 -5 0 -15 82 -163
121 -218 38 -53 198 -178 279 -216 39 -19 58 -21 148 -17 92 4 104 7 119 27 8
13 44 55 79 94 87 98 129 184 128 262 -1 33 -8 89 -16 125 -12 57 -17 65 -38
67 -14 2 -38 -5 -54 -13z"/>
</g>
</svg>
